# xmcd
#
# Track frame offsets:
#	150
#	3097
#	13695
#	26487
#	45102
#	58622
#	72472
#	84015
#	97710
#	110465
#	126785
#	138212
#	147642
#	159322
#	174295
#	190597
#	200635
#	215090
#
# Disc length: 3008 seconds
#
# Revision: 1
# Processed by: cddbd v1.5.1PL2 Copyright (c) Steve Scherf et al.
# Submitted via: audiograbber 1.81.03
#
DISCID=e20bbe12
DTITLE=Dorn, Joel and Lee Friedlander - Gospel Music
DYEAR=2006
DGENRE=Gospel
TTITLE0=Slim and the Supreme Angels - Precious Lord
TTITLE1=Golden Gate Jubilee Quartet - Go Where I Send Thee
TTITLE2=Swan Silvertones - Oh Mary, Don't You Weep
TTITLE3=Dorothy Love Coates - Strange Man
TTITLE4=Soul Stirrers - Last Mile Of The Way
TTITLE5=Harmonizing Four - Motherless Child
TTITLE6=Violinaires - What He Done For Me
TTITLE7=Consolers - Waiting For My Child
TTITLE8=Trumpeteers - Where Shall I Go
TTITLE9=Staple Singers - Stand By Me
TTITLE10=Original Five Blind Boys Of Alabama - This May Be The Last Time
TTITLE11=Staple Singers - This May Be The Last Time
TTITLE12=Swan Silvertones - Trouble In My Way
TTITLE13=Revernd James Cleveland - Get Right Church
TTITLE14=Mahalia Jackson - My God Is Real
TTITLE15=Angelic Gospel Singers and Dixie Hummingbirds - One Day
TTITLE16=Troy Ramey and The Soul Stirrers - By The Power Of God
TTITLE17=Revernd James Cleveland - He Decided To Die - excerpt
EXTD=
EXTT0=
EXTT1=
EXTT2=
EXTT3=
EXTT4=
EXTT5=
EXTT6=
EXTT7=
EXTT8=
EXTT9=
EXTT10=
EXTT11=
EXTT12=
EXTT13=
EXTT14=
EXTT15=
EXTT16=
EXTT17=
PLAYORDER=
